<?xml version="1.0" encoding="UTF-8" standalone="no"?>
<!-- Created with Inkscape (http://www.inkscape.org/) -->

<svg
   width="109.99999mm"
   height="109.99999mm"
   viewBox="0 0 109.99999 109.99999"
   version="1.1"
   id="svg905"
   xmlns:inkscape="http://www.inkscape.org/namespaces/inkscape"
   xmlns:sodipodi="http://sodipodi.sourceforge.net/DTD/sodipodi-0.dtd"
   xmlns="http://www.w3.org/2000/svg"
   xmlns:svg="http://www.w3.org/2000/svg">
  <sodipodi:namedview
     id="namedview907"
     pagecolor="#ffffff"
     bordercolor="#000000"
     borderopacity="0.25"
     inkscape:showpageshadow="2"
     inkscape:pageopacity="0.0"
     inkscape:pagecheckerboard="0"
     inkscape:deskcolor="#d1d1d1"
     inkscape:document-units="mm"
     showgrid="false" />
  <defs
     id="defs902" />
  <g
     inkscape:label="Layer 1"
     inkscape:groupmode="layer"
     id="layer1"
     transform="translate(-51.613998,-63.848999)">
    <path
       id="path909"
       style="fill:#999999;stroke-width:0.264583"
       d="m 106.61468,63.848816 a 55,55 0 0 0 -55.000259,55.000264 55,55 0 0 0 55.000259,54.99974 55,55 0 0 0 11.78326,-1.29604 34.639153,32.125023 0 0 1 -10.01076,-22.54281 34.639153,32.125023 0 0 1 0.7953,-6.78409 24.748917,25.866308 0 0 1 -4.77283,0.51832 24.748917,25.866308 0 0 1 -24.748879,-25.86612 24.748917,25.866308 0 0 1 24.748879,-25.866642 24.748917,25.866308 0 0 1 24.74887,25.866642 24.748917,25.866308 0 0 1 -0.14882,2.77192 34.639153,32.125023 0 0 1 14.01671,-2.76521 34.639153,32.125023 0 0 1 18.42782,4.92839 55,55 0 0 0 0.16019,-3.9641 55,55 0 0 0 -54.99974,-55.000264 z m -4.18166,38.664304 a 7.4551487,2.710963 44.767371 0 0 -0.89451,0.34003 7.4551487,2.710963 44.767371 0 0 3.38377,7.17476 7.4551487,2.710963 44.767371 0 0 7.20214,3.32538 7.4551487,2.710963 44.767371 0 0 -3.38377,-7.17476 7.4551487,2.710963 44.767371 0 0 -6.30763,-3.66541 z m 15.37529,11.76518 -0.0796,0.0842 c 0.0668,0.83863 0.0497,1.72029 -0.0512,2.64532 -0.0899,0.92473 -0.29618,1.90974 -0.61857,2.95537 -0.31232,1.01262 -0.75876,2.03184 -1.33945,3.05718 -0.58069,1.02534 -1.30803,1.99741 -2.18229,2.9161 -0.91158,0.9579 -1.85008,1.73609 -2.81534,2.33526 -0.95963,0.60447 -1.95502,1.10068 -2.98638,1.4888 -0.98781,0.37602 -1.96529,0.63487 -2.93212,0.77566 -0.96653,0.15169 -1.85024,0.21626 -2.65152,0.1943 l -0.0801,0.0842 1.93373,1.82212 c 2.07852,-0.19818 4.03318,-0.70974 5.86424,-1.53428 1.83106,-0.82453 3.5491,-2.07953 5.15369,-3.76566 1.60459,-1.68613 2.77074,-3.46147 3.49849,-5.32577 0.72776,-1.86431 1.13427,-3.83462 1.22009,-5.91075 z m -27.199887,0.17725 a 7.4551487,2.710963 44.767371 0 0 -0.894519,0.34003 7.4551487,2.710963 44.767371 0 0 3.383773,7.17475 7.4551487,2.710963 44.767371 0 0 7.202143,3.32538 7.4551487,2.710963 44.767371 0 0 -3.383772,-7.17475 7.4551487,2.710963 44.767371 0 0 -6.307625,-3.66541 z" />
  </g>
</svg>
