<?xml version="1.0" encoding="iso-8859-1"?>
<!-- Uploaded to: SVG Repo, www.svgrepo.com, Generator: SVG Repo Mixer Tools -->
<svg fill="#000000" height="800px" width="800px" version="1.1" id="Layer_1" xmlns="http://www.w3.org/2000/svg" xmlns:xlink="http://www.w3.org/1999/xlink" 
	 viewBox="0 0 512.001 512.001" xml:space="preserve">
<g>
	<g>
		<circle cx="155.761" cy="85.019" r="45.148"/>
	</g>
</g>
<g>
	<g>
		<path d="M511.06,166.049c-2.923-8.004-11.78-12.122-19.783-9.199c-54.678,19.969-177.675,64.889-198.457,72.48
			c3.452-12.315-4.965-24.359-17.211-25.844l-3.487-0.422c-9.29-18.883-7.321-14.881-16.401-33.339
			c-2.752-5.594-9.517-7.896-15.112-5.146c-5.051,2.485-8.313,8.671-4.698,16.02l9.456,19.22l-47.612-5.772l-50.181-33.351
			l29.967,9.839c-4.233-14.59-17.544-24.601-32.651-24.708l-31.509-0.226c-19.047-0.137-34.552,15.309-34.5,34.347l0.318,116.176
			c0.024,9.112,3.68,17.839,10.156,24.25c4.568,4.523,10.278,7.621,16.444,9.036H62.741L33.55,180.905
			c-1.804-9.176-10.706-15.148-19.88-13.349c-9.176,1.804-15.153,10.704-13.349,19.88L32.2,349.611
			c1.561,7.94,8.522,13.666,16.614,13.666h46.124v59.03l-52.282,28.63c-5.468,2.994-7.474,9.854-4.479,15.323
			c2.994,5.467,9.853,7.475,15.323,4.479l52.726-28.873l52.726,28.873c5.469,2.996,12.33,0.985,15.323-4.479
			c2.994-5.468,0.989-12.328-4.479-15.323l-52.282-28.63v-59.03h49.824c9.351,0,16.933-7.58,16.933-16.933
			c0-5.665-2.792-10.665-7.064-13.74l15.754,3.673v111.304c0,13.556,10.99,24.546,24.546,24.546s24.546-10.99,24.546-24.546V316.796
			c0-11.41-7.861-21.314-18.974-23.905l-10.355-2.414c1.709-0.017,3.441-0.302,5.137-0.922l46.9-17.129c0,8.676,0,172.628,0,182.788
			c0,9.341,7.573,16.914,16.914,16.914h0.068c9.341,0,16.914-7.573,16.914-16.914V292.242h164.18v162.973
			c0,9.341,7.573,16.914,16.914,16.914h0.068c9.341,0,16.914-7.573,16.914-16.914V275.048l-0.05,0.024
			c-0.139-9.219-7.645-16.653-16.898-16.653H303.111l198.751-72.588C509.865,182.911,513.983,174.053,511.06,166.049z
			 M207.275,260.573c-8.004,2.923-12.122,11.78-9.199,19.783c1.4,3.833,4.168,6.76,7.545,8.465l-28.33-6.605l0.574-36.504
			l-46.859-46.901l48.142,31.996c2.659,1.768,5.693,2.887,8.861,3.271l68.93,8.355C218.364,256.524,225.239,254.013,207.275,260.573
			z"/>
	</g>
</g>
</svg>