<?xml version="1.0" encoding="UTF-8" standalone="no"?>
<!-- Created with Inkscape (http://www.inkscape.org/) -->

<svg
   width="72.000252mm"
   height="71.999733mm"
   viewBox="0 0 72.000252 71.999733"
   version="1.1"
   id="svg5"
   xmlns:inkscape="http://www.inkscape.org/namespaces/inkscape"
   xmlns:sodipodi="http://sodipodi.sourceforge.net/DTD/sodipodi-0.dtd"
   xmlns="http://www.w3.org/2000/svg"
   xmlns:svg="http://www.w3.org/2000/svg">
  <sodipodi:namedview
     id="namedview7"
     pagecolor="#ffffff"
     bordercolor="#000000"
     borderopacity="0.25"
     inkscape:showpageshadow="2"
     inkscape:pageopacity="0.0"
     inkscape:pagecheckerboard="0"
     inkscape:deskcolor="#d1d1d1"
     inkscape:document-units="mm"
     showgrid="false" />
  <defs
     id="defs2" />
  <g
     inkscape:label="Layer 1"
     inkscape:groupmode="layer"
     id="layer1"
     transform="translate(-69.64643,-13.48407)">
    <path
       id="path111"
       style="fill:#000000;stroke-width:0.264583"
       d="M 105.6463,13.48407 A 36,36 0 0 0 69.64643,49.48394 36,36 0 0 0 105.6463,85.483805 36,36 0 0 0 141.64668,49.48394 36,36 0 0 0 105.6463,13.48407 Z m 9.70742,16.730245 c 0.57949,0 1.34953,0.513701 2.31097,1.540991 0.96143,1.02729 1.44229,1.810775 1.44229,2.350761 v 2.568319 c -0.38195,0 -0.9479,-0.05923 -1.69861,-0.177767 -0.73754,-0.131704 -1.29108,-0.197921 -1.65985,-0.197921 0.0922,-0.263408 0.1385,-0.520258 0.1385,-0.770496 0,-0.500474 -0.16477,-0.941492 -0.49403,-1.323433 -0.31609,-0.381941 -0.72426,-0.573092 -1.22473,-0.573092 -0.63218,0 -1.14588,0.408684 -1.54099,1.225248 0.0658,0.750712 0.86278,1.613348 2.39055,2.587956 l 3.27939,2.093929 c 0.32926,1.066802 0.49402,1.784586 0.49402,2.153357 0,0.935098 -0.5137,1.942583 -1.54099,3.022555 -1.01412,1.066801 -1.98875,1.600419 -2.92385,1.600419 -1.27753,0 -2.52246,-0.401701 -3.73414,-1.205095 -1.34338,-0.882416 -2.01486,-1.929734 -2.01486,-3.14141 V 40.50671 l 0.61236,-0.0987 0.31626,-0.197404 c 0.11853,-0.03951 0.24993,-0.05943 0.39481,-0.05943 0.18438,0 0.3163,0.0463 0.39532,0.138493 v 0.03927 c 0.10537,0.105363 0.29652,0.164596 0.5731,0.177767 h 0.65164 c 0.19755,0.592667 0.3887,1.126285 0.57309,1.600419 0.23706,0.592667 0.50685,1.086452 0.80977,1.481563 h 0.84956 c 0.63218,-1.02729 0.94826,-1.771458 0.94826,-2.232422 -0.53999,-0.447793 -1.33692,-1.000811 -2.39055,-1.65933 -1.14583,-0.711201 -1.94224,-1.297585 -2.39004,-1.758549 -0.69803,-0.724371 -1.04748,-1.534239 -1.04748,-2.429826 0,-0.908756 0.39524,-1.936159 1.18546,-3.081982 0.79022,-1.145824 1.60707,-1.837225 2.44998,-2.074292 0.32926,-0.09219 1.27751,-0.137976 2.84479,-0.137976 z m -25.366413,0.612365 0.731221,2.765723 c -0.250237,0.105363 -1.053639,0.17753 -2.410188,0.217041 -1.172165,0.03951 -1.982033,0.191345 -2.429826,0.454753 v 2.903698 l 0.256315,0.217558 c 0.131704,-0.105363 0.362688,-0.15813 0.691947,-0.15813 0.302919,0 0.70462,0.03285 1.205095,0.0987 0.592667,0.07902 0.987384,0.125323 1.18494,0.138493 0,0.210726 -0.08562,0.777194 -0.256832,1.699121 -0.09219,0.474134 -0.137976,0.888768 -0.137976,1.244369 l -3.022554,0.31626 c -0.105363,0.263407 -0.13873,0.862725 -0.09922,1.797823 l 0.118856,2.607592 c 0.02634,0.566327 -0.01996,1.007345 -0.138493,1.323434 l -3.990454,0.553454 V 30.846318 c 1.36972,0.07902 2.746056,0.118339 4.128947,0.118339 2.476032,0 3.865302,-0.04578 4.168221,-0.137977 z m 10.015923,0.197404 c 0.55316,0 1.29733,0.112001 2.23242,0.335897 3.43748,0.816564 5.15628,2.1929 5.15628,4.128947 l -0.29611,2.390552 -1.71876,3.239595 2.66703,5.907133 c -0.36878,-0.01317 -0.87601,0.04606 -1.52136,0.177767 -0.64535,0.131704 -1.13913,0.283021 -1.48156,0.454236 -0.36877,-0.302919 -0.69132,-0.987853 -0.9679,-2.054655 l -0.69143,-2.567802 c -0.32926,-0.842904 -0.78373,-1.264522 -1.36323,-1.264522 -0.44779,0 -0.77732,0.448001 -0.98805,1.343587 -0.11853,0.513645 -0.17777,1.125897 -0.17777,1.837097 0,0.539986 0.0398,0.92177 0.11886,1.145667 -0.36877,-0.118534 -0.92231,-0.184234 -1.659848,-0.197404 -0.777053,-0.01317 -1.31662,-0.0724 -1.619539,-0.177767 V 31.043721 c 0.131704,0.03951 0.414421,0.0465 0.849044,0.02015 0.487304,-0.02634 0.974622,-0.03979 1.461923,-0.03979 z m 30.68082,0.869198 c -0.15805,0.711201 -0.2372,1.409586 -0.2372,2.094446 0,0.579497 0.0791,1.007064 0.2372,1.283642 h -2.48926 c -0.23706,0.09219 -0.57306,0.283344 -1.00769,0.573092 l 0.35554,4.543909 0.0398,5.709212 c -0.39511,-0.02634 -0.96805,4.3e-5 -1.71876,0.07906 -0.79022,0.07902 -1.36316,0.111872 -1.71876,0.0987 -0.46096,-0.01317 -0.69143,-1.29044 -0.69143,-3.832324 0,-0.974609 0.0264,-1.969161 0.0791,-2.983281 0.0527,-1.01412 0.0791,-2.008672 0.0791,-2.98328 0,-0.34243 -0.28323,-0.565914 -0.84956,-0.671277 -0.0395,0 -0.25058,-0.01992 -0.63252,-0.05943 l -1.02733,-0.07906 c -0.64535,-0.05268 -1.00721,-0.171148 -1.08624,-0.355534 l -0.75085,-3.259749 2.46961,0.217558 c 1.07997,0.07902 1.94261,0.118339 2.58796,0.118339 0.34243,0 0.55298,-0.01293 0.632,-0.03927 z m -38.167699,0.01964 c 0.184386,0.03951 0.763787,0.125128 1.738396,0.256832 0.36877,0.05268 0.842638,0.131832 1.422135,0.237195 l 1.343587,0.256832 c -0.02634,0.01317 -0.08557,0.01964 -0.177767,0.01964 v 2.627746 c 0,0.32926 -0.03983,0.513427 -0.118855,0.552938 -0.158045,0.05268 -0.250129,0.105448 -0.276469,0.15813 0.02634,0.210726 0.03979,0.546727 0.03979,1.00769 0,1.079972 -0.14485,2.666859 -0.434598,4.76095 l -0.691431,4.998145 c -1.988728,-0.31609 -3.299364,-0.467407 -3.931543,-0.454236 0,-1.554106 0.197617,-3.865761 0.592729,-6.934461 0.408282,-3.08187 0.612365,-5.399475 0.612365,-6.95358 z m 8.691979,2.726449 v 4.227649 c 0.14487,0.09219 0.44156,0.158409 0.88935,0.19792 0.44779,0.03951 0.69766,0.118145 0.75034,0.236678 l 1.16582,-2.864424 c -0.25024,-0.645349 -0.62555,-1.099817 -1.12603,-1.363225 -0.28975,-0.158044 -0.84975,-0.302894 -1.67948,-0.434598 z m 12.83125,20.269563 c 0.5795,0 1.35005,0.513185 2.31149,1.540475 0.96144,1.02729 1.44229,1.811292 1.44229,2.351278 v 2.568318 c -0.38194,0 -0.94841,-0.05975 -1.69912,-0.178283 -0.73754,-0.131704 -1.29056,-0.197404 -1.65933,-0.197404 0.0922,-0.263408 0.13849,-0.520259 0.13849,-0.770496 0,-0.500475 -0.16477,-0.941492 -0.49402,-1.323433 -0.31609,-0.381942 -0.72426,-0.573092 -1.22474,-0.573092 -0.63217,0 -1.14588,0.408167 -1.54099,1.224731 0.0658,0.750712 0.86279,1.613347 2.39055,2.587956 l 3.27939,2.094446 c 0.32926,1.066801 0.49351,1.784586 0.49351,2.153357 0,0.935097 -0.5137,1.942583 -1.54099,3.022554 -1.01412,1.066802 -1.98824,1.599903 -2.92334,1.599903 -1.27752,0 -2.52246,-0.401701 -3.73414,-1.205095 -1.34337,-0.882416 -2.01486,-1.929218 -2.01486,-3.140893 v -1.461927 l 0.61237,-0.0987 0.31626,-0.197403 c 0.11853,-0.03951 0.24993,-0.05943 0.3948,-0.05943 0.18439,0 0.31631,0.0463 0.39533,0.138492 v 0.03928 c 0.10536,0.105363 0.296,0.164596 0.57257,0.177766 h 0.65216 c 0.19756,0.592668 0.38871,1.126286 0.57309,1.60042 0.23707,0.592667 0.50685,1.086451 0.80977,1.481563 h 0.84956 c 0.63218,-1.02729 0.94826,-1.771458 0.94826,-2.232422 -0.53998,-0.447793 -1.33692,-1.000811 -2.39055,-1.65933 -1.14582,-0.711201 -1.94276,-1.297586 -2.39055,-1.758549 -0.69803,-0.724371 -1.04696,-1.53424 -1.04696,-2.429826 0,-0.908757 0.39523,-1.936159 1.18545,-3.081982 0.79023,-1.145824 1.60656,-1.837226 2.44947,-2.074292 0.32926,-0.09219 1.27751,-0.137977 2.84478,-0.137977 z m -12.56409,0.276469 c 2.05458,0 3.47024,0.856169 4.24729,2.568319 0.4873,1.079972 0.7307,2.601158 0.7307,4.563546 0,1.738491 -0.42808,3.456778 -1.28415,5.155757 -1.13266,2.252137 -2.72601,3.378606 -4.78059,3.378606 -1.251188,0 -2.40999,-0.270301 -3.476791,-0.810287 -0.869246,-0.447793 -1.594014,-1.336811 -2.173511,-2.667021 -0.513645,-1.198505 -0.770496,-2.35084 -0.770496,-3.457153 0,-1.317039 0.382301,-2.666991 1.146184,-4.049882 0.711201,-1.303868 1.619619,-2.390504 2.725931,-3.259749 1.211676,-0.948268 2.423763,-1.422136 3.635433,-1.422136 z M 85.6315,55.718704 c 0.553157,0 1.297325,0.112 2.232422,0.335897 3.424301,0.816564 5.136121,2.1929 5.136121,4.128947 L 92.723574,62.5741 c -0.566327,1.36972 -1.192028,2.337372 -1.876888,2.903698 -0.777053,0.65852 -1.850238,0.988054 -3.219959,0.988054 -0.447793,0 -0.770343,0.447484 -0.967899,1.34307 -0.131704,0.605838 -0.197921,1.218606 -0.197921,1.837614 0,0.539986 0.03983,0.92177 0.118856,1.145667 -0.355601,-0.118534 -0.909135,-0.184234 -1.659847,-0.197404 -0.737542,0 -1.277109,-0.05923 -1.61954,-0.177767 V 55.738338 c 0.131704,0.03951 0.414421,0.04598 0.849044,0.01964 0.487305,-0.02634 0.981606,-0.03927 1.48208,-0.03927 z m 43.73841,0.869198 c -0.15804,0.711201 -0.23667,1.409069 -0.23667,2.093929 0,0.579497 0.0786,1.007581 0.23667,1.284159 h -2.48873 c -0.23707,0.09219 -0.57307,0.283343 -1.00769,0.573092 l 0.35553,4.543908 0.0393,5.709213 c -0.39512,-0.02634 -0.96805,4.2e-5 -1.71876,0.07906 -0.79023,0.07902 -1.36316,0.111872 -1.71876,0.0987 -0.46096,-0.01317 -0.69143,-1.29044 -0.69143,-3.832325 0,-0.974608 0.0264,-1.96916 0.0791,-2.98328 0.0527,-1.01412 0.0791,-2.008672 0.0791,-2.98328 0,-0.342431 -0.28324,-0.566431 -0.84956,-0.671794 -0.0395,0 -0.25006,-0.0194 -0.63201,-0.05891 l -1.02732,-0.07906 c -0.64535,-0.05268 -1.00722,-0.171149 -1.08624,-0.355534 l -0.75086,-3.259749 2.46962,0.217041 c 1.07997,0.07902 1.9426,0.118855 2.58795,0.118855 0.34243,0 0.55298,-0.01345 0.63201,-0.03979 z m -27.87478,2.66702 c -0.27658,0.144875 -0.90228,0.434575 -1.876887,0.869198 -1.290697,2.146773 -1.935799,3.569409 -1.935799,4.26744 0,0.724371 0.144851,1.375939 0.434599,1.955436 0.368771,0.724371 0.881955,1.086755 1.540475,1.086755 0.829732,0 1.560972,-0.625701 2.193142,-1.876888 0.55316,-1.093142 0.82993,-2.127011 0.82993,-3.101619 0,-0.935098 -0.39524,-2.001816 -1.18546,-3.200322 z m -14.658535,0.07906 v 4.227649 c 0.118533,0.07902 0.4147,0.144723 0.888834,0.197404 0.434623,0.05268 0.685007,0.131832 0.750859,0.237195 l 1.165303,-2.864425 c -0.276578,-0.658519 -0.651895,-1.112987 -1.126029,-1.363224 -0.289749,-0.144874 -0.849233,-0.289724 -1.678967,-0.434599 z" />
  </g>
</svg>
